<svg height="512" viewBox="0 0 512 512" width="512" xmlns="http://www.w3.org/2000/svg" xmlns:xlink="http://www.w3.org/1999/xlink"><linearGradient id="New_Gradient_Swatch_19" gradientUnits="userSpaceOnUse" x1="76.25" x2="179.75" y1="395.25" y2="291.75"><stop offset="0" stop-color="#8f86c0"/><stop offset="1" stop-color="#c7c3df"/></linearGradient><linearGradient id="New_Gradient_Swatch_17" gradientUnits="userSpaceOnUse" x1="76" x2="180" y1="460" y2="356"><stop offset="0" stop-color="#8177b8"/><stop offset="1" stop-color="#aba4d0"/></linearGradient><linearGradient id="New_Gradient_Swatch_22" gradientUnits="userSpaceOnUse" x1="28" x2="100" y1="444" y2="372"><stop offset="0" stop-color="#9d95c8"/><stop offset="1" stop-color="#d5d2e7"/></linearGradient><linearGradient id="New_Gradient_Swatch_22-2" x1="156" x2="228" xlink:href="#New_Gradient_Swatch_22" y2="372"/><linearGradient id="New_Gradient_Swatch_20" gradientUnits="userSpaceOnUse" x1="332.25" x2="435.75" y1="141.25" y2="37.75"><stop offset="0" stop-color="#83cacf"/><stop offset="1" stop-color="#dcf0f1"/></linearGradient><linearGradient id="New_Gradient_Swatch_10" gradientUnits="userSpaceOnUse" x1="332" x2="436" y1="206" y2="102"><stop offset="0" stop-color="#72c2c8"/><stop offset="1" stop-color="#b8e1e3"/></linearGradient><linearGradient id="New_Gradient_Swatch_6" gradientUnits="userSpaceOnUse" x1="284" x2="356" y1="190" y2="118"><stop offset="0" stop-color="#b8e1e3"/><stop offset="1" stop-color="#dcf0f1"/></linearGradient><linearGradient id="New_Gradient_Swatch_6-2" x1="412" x2="484" xlink:href="#New_Gradient_Swatch_6" y2="118"/><g id="_13-transfer" data-name="13-transfer"><g id="linear_color" data-name="linear color"><path d="m224 351h-192v-15l96-64 96 64z" fill="url(#New_Gradient_Swatch_19)"/><path d="m80 352h96v112h-96z" fill="url(#New_Gradient_Swatch_17)"/><path d="m48 352h32v112h-32z" fill="url(#New_Gradient_Swatch_22)"/><path d="m176 352h32v112h-32z" fill="url(#New_Gradient_Swatch_22-2)"/><path d="m480 97h-192v-15l96-64 96 64z" fill="url(#New_Gradient_Swatch_20)"/><path d="m336 98h96v112h-96z" fill="url(#New_Gradient_Swatch_10)"/><path d="m304 98h32v112h-32z" fill="url(#New_Gradient_Swatch_6)"/><path d="m432 98h32v112h-32z" fill="url(#New_Gradient_Swatch_6-2)"/><path d="m32 454a10 10 0 0 0 0 20h192a10 10 0 0 0 0-20h-6v-93h6a10 10 0 0 0 10-10v-15a10 10 0 0 0 -4.453-8.32l-96-64a10 10 0 0 0 -11.094 0l-96 64a10 10 0 0 0 -4.453 8.32v15a10 10 0 0 0 10 10h6v93zm58-92h76v92h-76zm96 92v-92h12v92zm-58-169.981 85.472 56.981h-170.944zm-70 77.981h12v92h-12z"/><path d="m240 486h-224a10 10 0 0 0 0 20h224a10 10 0 0 0 0-20z"/><path d="m288 200a10 10 0 0 0 0 20h192a10 10 0 0 0 0-20h-6v-93h6a10 10 0 0 0 10-10v-15a10 10 0 0 0 -4.453-8.32l-96-64a10 10 0 0 0 -11.094 0l-96 64a10 10 0 0 0 -4.453 8.32v15a10 10 0 0 0 10 10h6v93zm58-92h76v92h-76zm96 92v-92h12v92zm-58-169.981 85.473 56.981h-170.946zm-70 77.981h12v92h-12z"/><path d="m496 232h-224a10 10 0 0 0 0 20h224a10 10 0 0 0 0-20z"/><path d="m429.129 289.2a10 10 0 0 0 -12.136 7.26 165.381 165.381 0 0 1 -118.932 120.147l12.247-22.894a10 10 0 0 0 -17.635-9.434l-22.642 42.321a10 10 0 0 0 4.285 13.631l42.8 21.76a10 10 0 1 0 9.065-17.828l-18.6-9.457a185.863 185.863 0 0 0 128.809-133.367 10 10 0 0 0 -7.261-12.139z"/><path d="m82.872 222.8a9.984 9.984 0 0 0 12.135-7.26 165.383 165.383 0 0 1 118.932-120.147l-12.247 22.894a10 10 0 1 0 17.635 9.434l22.642-42.321a10 10 0 0 0 -4.285-13.631l-42.8-21.76a10 10 0 1 0 -9.065 17.828l18.6 9.457a185.86 185.86 0 0 0 -128.808 133.367 10 10 0 0 0 7.261 12.139z"/></g></g></svg>